<?xml version="1.0" standalone="no"?>
<!DOCTYPE svg PUBLIC "-//W3C//DTD SVG 20010904//EN"
 "http://www.w3.org/TR/2001/REC-SVG-20010904/DTD/svg10.dtd">
<svg version="1.0" xmlns="http://www.w3.org/2000/svg"
 width="192.000000pt" height="192.000000pt" viewBox="0 0 192.000000 192.000000"
 preserveAspectRatio="xMidYMid meet">
<metadata>
Created by potrace 1.11, written by Peter Selinger 2001-2013
</metadata>
<g transform="translate(0.000000,192.000000) scale(0.100000,-0.100000)"
fill="#000000" stroke="none">
<path d="M294 1470 c0 -10 4 -16 9 -13 5 3 4 -5 -3 -17 -9 -18 -9 -24 0 -30 8
-5 9 -13 4 -21 -13 -21 -13 -39 -1 -39 7 0 6 -5 -3 -11 -12 -9 -11 -10 8 -6
12 3 22 2 22 -1 0 -4 23 -7 50 -7 28 0 50 3 50 7 0 4 11 3 25 -2 18 -7 25 -6
25 3 0 7 3 8 8 2 9 -13 42 -15 42 -3 0 6 6 5 15 -2 12 -10 15 -10 15 1 0 9 3
10 8 4 9 -13 42 -16 42 -3 0 5 6 6 13 1 6 -4 30 -7 52 -6 22 1 34 -1 28 -4 -7
-2 -13 -11 -13 -19 0 -8 -4 -14 -9 -14 -5 0 -11 -8 -15 -17 -6 -21 -25 -51
-44 -71 -7 -7 -9 -18 -6 -24 4 -6 3 -9 -2 -6 -10 7 -27 -11 -32 -32 -2 -8 -8
-17 -13 -18 -5 -2 -7 -8 -3 -13 3 -5 -2 -12 -10 -15 -9 -3 -16 -12 -16 -20 0
-8 -5 -14 -11 -14 -5 0 -7 -4 -4 -10 3 -5 -1 -10 -10 -10 -10 0 -13 -5 -9 -12
4 -6 -1 -17 -11 -25 -11 -7 -16 -13 -12 -13 7 0 0 -11 -31 -45 -7 -8 -12 -16
-11 -17 5 -7 -64 -108 -74 -108 -5 0 -8 -3 -4 -6 3 -4 -8 -27 -26 -53 -17 -25
-31 -50 -29 -54 1 -4 -5 -10 -13 -13 -8 -4 -15 -12 -15 -19 0 -7 -6 -17 -12
-23 -8 -6 -13 -33 -12 -69 l0 -58 348 -1 347 -1 -2 81 -2 82 -136 -1 c-78 0
-139 -4 -143 -10 -5 -6 -8 -6 -8 2 0 8 -22 11 -72 8 -85 -3 -95 0 -72 26 9 10
14 19 11 19 -4 0 0 8 8 18 8 9 15 21 14 26 0 5 3 12 8 15 18 13 62 79 56 85
-4 3 -2 6 3 6 5 0 18 16 28 35 11 19 22 35 26 35 5 0 11 11 14 25 4 14 11 23
17 20 5 -4 8 -2 7 2 -3 9 96 174 120 198 6 8 12 18 12 24 0 6 5 11 10 11 6 0
10 6 10 13 0 7 9 23 20 35 12 12 18 22 16 22 -3 0 6 16 19 36 14 20 25 41 26
45 1 12 1 75 0 94 -1 14 -41 15 -324 15 -309 -1 -323 -2 -323 -20z"/>
<path d="M1117 1483 c-2 -4 -2 -26 0 -48 1 -22 3 -46 3 -52 0 -28 0 -64 0 -75
0 -7 -1 -28 -3 -45 -3 -20 0 -33 7 -33 7 0 7 -3 1 -8 -5 -4 -10 -20 -10 -37 0
-16 5 -33 10 -37 7 -5 6 -8 0 -8 -6 0 -11 -18 -10 -40 0 -22 4 -40 9 -40 5 0
4 -6 -1 -12 -6 -7 -8 -22 -6 -33 5 -24 5 -30 0 -72 -3 -20 0 -33 7 -33 7 0 7
-3 1 -8 -5 -4 -10 -20 -10 -37 0 -16 5 -33 10 -37 7 -5 6 -8 0 -8 -6 0 -11
-18 -10 -40 0 -22 4 -40 9 -40 5 0 4 -6 -1 -12 -6 -7 -8 -22 -6 -33 5 -23 5
-21 0 -98 -2 -33 1 -61 7 -66 6 -5 139 -8 296 -7 l284 1 1 73 c1 40 -3 76 -9
79 -17 11 -56 12 -56 3 0 -5 -7 -7 -15 -4 -8 4 -12 10 -9 15 3 5 -5 5 -18 1
-13 -5 -65 -8 -115 -8 -57 1 -93 -3 -93 -9 0 -5 -4 -4 -9 3 -5 8 -20 12 -38 9
l-29 -5 0 402 0 401 -96 3 c-53 1 -98 -1 -101 -5z"/>
</g>
</svg>
